#!OML:ASF X:\für Bonn\!DataBase\2005_08_11_Bastian_Final\c3d\Bastian.ASF
:FULLY-SPECIFIED
:DEGREES
124
root -21.7161 17.7061 0.584172 123.014 -77.6476 -128.028
lowerback 8.5177 7.00258 6.60756
upperback 3.55604 9.63437 -3.1681
thorax 0.647804 4.92479 -7.60449
lowerneck -9.70718 -10.6703 -3.36383
upperneck -18.3431 -13.4065 15.4912
head -2.54553 -7.38797 5.07914
rclavicle -7.55382e-014 1.43125e-014
rhumerus 55.2095 -3.53728 -18.1601
rradius 19.7735
rwrist -17.3256
rhand 6.3644 -6.27691
rfingers 7.12502
rthumb 31.6705 -33.5484
lclavicle -7.55382e-014 1.43125e-014
lhumerus -13.1434 -25.5492 87.2149
lradius 24.3091
lwrist 21.916
lhand -9.806 -7.64525
lfingers 7.12502
lthumb 16.1705 21.7002
rfemur 0.981267 -6.28722 29.1284
rtibia 29.8026
rfoot -15.1279 -15.5005
rtoes -15.779
lfemur -7.61679 -4.97035 -10.8287
ltibia 26.3909
lfoot -4.12936 -13.4743
ltoes -11.529
125
root -21.7408 17.7023 0.590251 123.123 -77.626 -128.132
lowerback 8.41586 6.97077 6.60683
upperback 3.60003 9.58578 -3.15932
thorax 0.739356 4.90528 -7.57516
lowerneck -9.73283 -10.7262 -3.47621
upperneck -18.3049 -13.4661 15.6583
head -2.50121 -7.41604 5.13771
rclavicle -2.38542e-015 1.90833e-014
rhumerus 55.2467 -3.32463 -17.8821
rradius 20.0292
rwrist -18.489
rhand 6.11949 -6.3638
rfingers 7.12502
rthumb 31.4372 -33.681
lclavicle -2.38542e-015 1.90833e-014
lhumerus -13.2187 -25.6168 87.2256
lradius 23.2793
lwrist 21.651
lhand -9.67329 -7.13754
lfingers 7.12502
lthumb 16.2982 22.1975
rfemur 0.901626 -6.44023 29.0812
rtibia 29.9098
rfoot -14.9925 -15.8343
rtoes -15.2459
lfemur -7.59619 -4.79855 -10.853
ltibia 26.5278
lfoot -4.25799 -13.6093
ltoes -11.357
126
root -21.7648 17.6976 0.595941 123.261 -77.6261 -128.281
lowerback 8.31609 6.92774 6.59495
upperback 3.65709 9.52044 -3.16483
thorax 0.84131 4.87796 -7.55382
lowerneck -9.78627 -10.7722 -3.53153
upperneck -18.2687 -13.5219 15.7669
head -2.46308 -7.44297 5.16952
rclavicle -3.97569e-015 2.06736e-014
rhumerus 55.3256 -3.15189 -17.7157
rradius 20.2871
rwrist -19.5909
rhand 5.87587 -6.59646
rfingers 7.12502
rthumb 31.205 -33.9587
lclavicle -3.97569e-015 2.06736e-014
lhumerus -13.2084 -25.6367 87.1826
lradius 22.1636
lwrist 21.3642
lhand -9.59779 -6.65233
lfingers 7.12502
lthumb 16.3709 22.6768
rfemur 0.881243 -6.58873 29.0062
rtibia 30.0135
rfoot -14.8605 -16.1183
rtoes -15.1534
lfemur -7.56577 -4.666 -10.9012
ltibia 26.6769
lfoot -4.36363 -13.7191
ltoes -11.0094
127
root -21.7881 17.6923 0.602069 123.424 -77.6289 -128.454
lowerback 8.21914 6.89395 6.57461
upperback 3.70177 9.46774 -3.16176
thorax 0.927941 4.85575 -7.52084
lowerneck -9.78039 -10.8203 -3.62632
upperneck -18.2431 -13.5741 15.8976
head -2.43241 -7.46817 5.21763
rclavicle 1.63003e-014 5.40694e-014
rhumerus 55.3885 -3.01557 -17.6059
rradius 20.5721
rwrist -20.5867
rhand 5.62077 -6.99549
rfingers 7.12502
rthumb 30.9619 -34.4042
lclavicle 1.63003e-014 5.40694e-014
lhumerus -13.2091 -25.6749 87.1701
lradius 21.0377
lwrist 21.1077
lhand -9.52466 -6.1447
lfingers 7.12502
lthumb 16.4414 23.1786
rfemur 0.886798 -6.78426 28.9184
rtibia 30.1003
rfoot -14.6927 -16.3399
rtoes -15.4768
lfemur -7.55326 -4.51332 -10.9531
ltibia 26.8425
lfoot -4.48468 -13.8477
ltoes -10.6209
128
root -21.8108 17.6869 0.607905 123.714 -77.633 -128.75
lowerback 8.11528 6.87254 6.5393
upperback 3.73981 9.43015 -3.17417
thorax 1.01436 4.84089 -7.4959
lowerneck -9.75126 -10.8698 -3.687
upperneck -18.2147 -13.6302 16.0299
head -2.40636 -7.49795 5.2621
rclavicle -1.79304e-013 4.77083e-014
rhumerus 55.4351 -2.87976 -17.5203
rradius 20.8249
rwrist -21.5789
rhand 5.29245 -7.45449
rfingers 7.12502
rthumb 30.6489 -34.9223
lclavicle -1.79304e-013 4.77083e-014
lhumerus -13.1961 -25.5149 87.1206
lradius 19.9006
lwrist 20.6126
lhand -9.4959 -5.64372
lfingers 7.12502
lthumb 16.469 23.6773
rfemur 0.885006 -6.95181 28.8168
rtibia 30.1886
rfoot -14.4781 -16.5601
rtoes -15.9994
lfemur -7.53269 -4.32451 -11.0244
ltibia 26.9937
lfoot -4.60798 -13.995
ltoes -10.3665
129
root -21.8331 17.6829 0.613577 123.837 -77.6107 -128.871
lowerback 7.98379 6.83236 6.54314
upperback 3.79614 9.36896 -3.17022
thorax 1.13479 4.81655 -7.46945
lowerneck -9.74633 -10.9052 -3.7245
upperneck -18.192 -13.6718 16.1355
head -2.38382 -7.52091 5.2951
rclavicle 5.60573e-014 2.8625e-014
rhumerus 55.5232 -2.79562 -17.4937
rradius 21.099
rwrist -22.4776
rhand 4.90209 -7.985
rfingers 7.12502
rthumb 30.2766 -35.5218
lclavicle 5.60573e-014 2.8625e-014
lhumerus -13.2029 -25.3152 87.0439
lradius 18.8493
lwrist 20.1219
lhand -9.51829 -5.17036
lfingers 7.12502
lthumb 16.4475 24.1524
rfemur 0.879717 -7.15089 28.7648
rtibia 30.2607
rfoot -14.2516 -16.7747
rtoes -16.8741
lfemur -7.52649 -4.15511 -11.0447
ltibia 27.1476
lfoot -4.73691 -14.1271
ltoes -10.1998
130
root -21.855 17.6786 0.619291 124.132 -77.6119 -129.164
lowerback 7.86536 6.80861 6.50958
upperback 3.82633 9.32833 -3.18792
thorax 1.22173 4.80013 -7.44991
lowerneck -9.67752 -10.9477 -3.75843
upperneck -18.1849 -13.7195 16.2669
head -2.37295 -7.55032 5.33922
rclavicle -1.62208e-013 4.6118e-014
rhumerus 55.5718 -2.63881 -17.3807
rradius 21.3422
rwrist -23.4281
rhand 4.42985 -8.50523
rfingers 7.12502
rthumb 29.826 -36.1239
lclavicle -1.62208e-013 4.6118e-014
lhumerus -13.2997 -25.1113 86.9801
lradius 17.878
lwrist 19.5884
lhand -9.54657 -4.66768
lfingers 7.12502
lthumb 16.4202 24.6573
rfemur 0.885079 -7.34849 28.6601
rtibia 30.3322
rfoot -14.0697 -16.8741
rtoes -17.4897
lfemur -7.50842 -3.98714 -11.1125
ltibia 27.2826
lfoot -4.85949 -14.2385
ltoes -10.0136
131
root -21.8764 17.6749 0.62507 124.346 -77.5752 -129.372
lowerback 7.74472 6.77476 6.50834
upperback 3.85382 9.27718 -3.18283
thorax 1.30659 4.77864 -7.42407
lowerneck -9.61486 -10.9811 -3.79627
upperneck -18.1573 -13.7575 16.373
head -2.35784 -7.57243 5.37562
rclavicle 0 2.06736e-014
rhumerus 55.6753 -2.5364 -17.4017
rradius 21.5528
rwrist -24.1715
rhand 3.93582 -8.95821
rfingers 7.12502
rthumb 29.3544 -36.6605
lclavicle 0 2.06736e-014
lhumerus -13.2744 -24.5836 86.8869
lradius 16.6408
lwrist 18.762
lhand -9.6093 -4.37988
lfingers 7.12502
lthumb 16.3599 24.9501
rfemur 0.897015 -7.53072 28.5983
rtibia 30.3968
rfoot -13.9159 -16.8933
rtoes -18.0594
lfemur -7.48859 -3.83801 -11.1339
ltibia 27.3988
lfoot -4.96237 -14.3243
ltoes -9.74257
132
root -21.8976 17.671 0.63087 124.612 -77.5562 -129.634
lowerback 7.63887 6.74335 6.49575
upperback 3.86761 9.22954 -3.19226
thorax 1.37025 4.75774 -7.41069
lowerneck -9.53347 -11.0117 -3.83375
upperneck -18.1288 -13.7899 16.4989
head -2.34391 -7.59302 5.41904
rclavicle 8.98507e-014 -3.02153e-014
rhumerus 55.7338 -2.41443 -17.4173
rradius 21.8123
rwrist -24.8351
rhand 3.3843 -9.34884
rfingers 7.12502
rthumb 28.8277 -37.1421
lclavicle 8.98507e-014 -3.02153e-014
lhumerus -13.3054 -23.9867 86.7741
lradius 15.466
lwrist 17.8633
lhand -9.69063 -4.08075
lfingers 7.12502
lthumb 16.2815 25.2557
rfemur 0.927426 -7.68107 28.5172
rtibia 30.4523
rfoot -13.7867 -16.8511
rtoes -18.6801
lfemur -7.46131 -3.63115 -11.1748
ltibia 27.504
lfoot -5.06667 -14.475
ltoes -9.56382
133
root -21.9169 17.6687 0.63667 124.963 -77.5538 -129.973
lowerback 7.5467 6.71278 6.44844
upperback 3.86671 9.18174 -3.20923
thorax 1.40637 4.73458 -7.38954
lowerneck -9.45067 -11.0334 -3.82636
upperneck -18.0819 -13.8171 16.5857
head -2.33224 -7.61112 5.44391
rclavicle -6.99722e-014 4.77083e-014
rhumerus 55.7385 -2.30614 -17.4751
rradius 22.1796
rwrist -25.3653
rhand 2.87625 -9.71924
rfingers 7.12502
rthumb 28.3423 -37.5942
lclavicle -6.99722e-014 4.77083e-014
lhumerus -13.3349 -23.3201 86.6428
lradius 14.2463
lwrist 16.9079
lhand -9.78412 -3.89171
lfingers 7.12502
lthumb 16.1915 25.4521
rfemur 0.941209 -7.784 28.4179
rtibia 30.5029
rfoot -13.6421 -16.7993
rtoes -19.3574
lfemur -7.44009 -3.4282 -11.2396
ltibia 27.5911
lfoot -5.12346 -14.5987
ltoes -9.25203
134
root -21.9362 17.6659 0.642511 125.22 -77.502 -130.224
lowerback 7.45569 6.67593 6.45884
upperback 3.86602 9.12984 -3.21781
thorax 1.44962 4.71095 -7.39125
lowerneck -9.3686 -11.0547 -3.81151
upperneck -18.0264 -13.8449 16.6756
head -2.31812 -7.62981 5.46804
rclavicle 4.37326e-014 -4.6118e-014
rhumerus 55.7892 -2.19088 -17.5443
rradius 22.5159
rwrist -25.775
rhand 2.36738 -9.97392
rfingers 7.12502
rthumb 27.8559 -37.9287
lclavicle 4.37326e-014 -4.6118e-014
lhumerus -13.387 -22.5936 86.4714
lradius 13.084
lwrist 15.9077
lhand -9.90163 -3.6969
lfingers 7.12502
lthumb 16.0784 25.6561
rfemur 0.980025 -7.83982 28.3711
rtibia 30.5455
rfoot -13.5273 -16.6989
rtoes -19.8864
lfemur -7.39936 -3.27015 -11.2538
ltibia 27.6633
lfoot -5.21011 -14.6875
ltoes -9.07695
